<?xml version="1.0" encoding="UTF-8" standalone="no"?>
<svg
   xmlns:dc="http://purl.org/dc/elements/1.1/"
   xmlns:cc="http://creativecommons.org/ns#"
   xmlns:rdf="http://www.w3.org/1999/02/22-rdf-syntax-ns#"
   xmlns:svg="http://www.w3.org/2000/svg"
   xmlns="http://www.w3.org/2000/svg"
   xmlns:xlink="http://www.w3.org/1999/xlink"
   xmlns:sodipodi="http://sodipodi.sourceforge.net/DTD/sodipodi-0.dtd"
   xmlns:inkscape="http://www.inkscape.org/namespaces/inkscape"
   width="375"
   height="667"
   id="svg338"
   version="1.1"
   inkscape:version="0.91 r13725"
   sodipodi:docname="home-screen-phone.svg">
  <metadata
     id="metadata438">
    <rdf:RDF>
      <cc:Work
         rdf:about="">
        <dc:format>image/svg+xml</dc:format>
        <dc:type
           rdf:resource="http://purl.org/dc/dcmitype/StillImage" />
      </cc:Work>
    </rdf:RDF>
  </metadata>
  <sodipodi:namedview
     pagecolor="#ffffff"
     bordercolor="#666666"
     borderopacity="1"
     objecttolerance="10"
     gridtolerance="10"
     guidetolerance="10"
     inkscape:pageopacity="0"
     inkscape:pageshadow="2"
     inkscape:window-width="1255"
     inkscape:window-height="791"
     id="namedview436"
     showgrid="false"
     inkscape:zoom="1.4152924"
     inkscape:cx="129.7006"
     inkscape:cy="589.98671"
     inkscape:window-x="0"
     inkscape:window-y="0"
     inkscape:window-maximized="0"
     inkscape:current-layer="svg338" />
  <defs
     id="defs340">
    <path
       d="M0 10C0 4.477 4.477 0 10 0s10 4.477 10 10-4.477 10-10 10S0 15.523 0 10z"
       id="a" />
    <path
       id="c"
       d="M19.818 19.348H0V.106h19.818z" />
  </defs>
  <g
     id="g344"
     fill-rule="evenodd"
     fill="none">
    <path
       d="M0 0h375v55H0z"
       id="path346"
       fill="#657884" />
    <path
       d="M0 48.66h375v61.837H0z"
       id="path348"
       fill="#FFF" />
    <path
       d="M0 110.497h375V667H0z"
       id="path350"
       fill="#F5F5F5" />
    <rect
       x="78"
       y="78"
       width="197"
       height="6.333"
       rx="3.167"
       id="rect352"
       fill="#E0E0E0" />
    <g
       transform="translate(28 146)"
       id="g354">
      <rect
         width="320"
         height="101"
         rx="5"
         id="rect356"
         fill="#FFF" />
      <rect
         x="28"
         y="24"
         width="171"
         height="6.333"
         rx="3.167"
         id="rect358"
         fill="#A8B3BB" />
      <rect
         x="28"
         y="44"
         width="119"
         height="6.333"
         rx="3.167"
         id="rect360"
         fill="#A8B3BB" />
      <path
         d="M244 0h71c2.76 0 5 2.24 5 5.01v90.98c0 2.768-2.233 5.01-5 5.01h-71V0z"
         id="path362"
         fill="#7DB00E" />
      <rect
         width="320"
         height="101"
         rx="5"
         id="rect364"
         stroke-width="2"
         stroke="#E0E0E0" />
      <path
         d="M292.596 42.348h-5.365c0-2.41-1.92-4.348-4.29-4.348h-11.79c-1.19 0-2.14.972-2.14 2.17V54.3c0 2.055 1.41 3.756 3.29 4.215-.04.222-.07.45-.07.683 0 2.1 1.68 3.804 3.76 3.804s3.76-1.703 3.76-3.804c0-.186-.03-.364-.05-.544h5.47c-.02.18-.05.358-.05.544 0 2.1 1.68 3.804 3.76 3.804s3.76-1.703 3.76-3.804c0-.186-.03-.364-.05-.544h.61c.88 0 1.6-.722 1.6-1.623V44.52c0-1.196-.95-2.165-2.14-2.165zM275.97 61.913c-1.477 0-2.68-1.22-2.68-2.717 0-1.5 1.203-2.718 2.68-2.718 1.48 0 2.682 1.22 2.682 2.718 0 1.497-1.202 2.717-2.68 2.717zm3.38-4.348c-.605-1.28-1.884-2.174-3.38-2.174-1.465 0-2.72.86-3.34 2.11-1.458-.31-2.558-1.62-2.558-3.19V40.17c0-.597.482-1.083 1.073-1.083h11.79c1.778 0 3.224 1.466 3.224 3.267V56.54c-.29.296-.52.645-.7 1.025h-6.12zm9.49 4.348c-1.477 0-2.68-1.22-2.68-2.717 0-1.5 1.203-2.718 2.68-2.718 1.48 0 2.682 1.22 2.682 2.718 0 1.497-1.202 2.717-2.68 2.717zm4.827-13.046l-3.218-.007v-2.164h3.21v2.17zm0-3.258h-3.218c-.6 0-1.08.49-1.08 1.09v2.15c0 .61.48 1.09 1.07 1.09h3.21v7.07c0 .3-.23.53-.52.53h-.93c-.61-1.28-1.89-2.18-3.38-2.18-.58 0-1.12.14-1.61.38V43.43h5.36c.6 0 1.07.474 1.07 1.078v1.098z"
         id="path366"
         stroke-width=".5"
         stroke="#FFF"
         fill="#FFF"
         opacity=".7" />
      <g
         transform="translate(28 64)"
         id="g368">
        <mask
           id="b"
           fill="#fff">
          <use
             xlink:href="#a"
             id="use371" />
        </mask>
        <use
           xlink:href="#a"
           id="use373"
           fill-rule="nonzero"
           fill="#5A6D79" />
        <path
           d="M9.952 10V4.417c0-.225-.213-.417-.476-.417C9.22 4 9 4.187 9 4.417v6.535h6.25c.225 0 .417-.213.417-.476 0-.255-.187-.476-.417-.476H9.953z"
           mask="url(#b)"
           id="path375"
           stroke="#FFF"
           fill="#FFF" />
      </g>
    </g>
    <g
       transform="translate(28 267)"
       id="g377">
      <rect
         width="320"
         height="101"
         rx="5"
         id="rect379"
         fill="#FFF" />
      <rect
         x="28"
         y="24"
         width="171"
         height="6.333"
         rx="3.167"
         id="rect381"
         fill="#A8B3BB" />
      <rect
         x="28"
         y="44"
         width="119"
         height="6.333"
         rx="3.167"
         id="rect383"
         fill="#A8B3BB" />
      <path
         d="M244 0h71c2.76 0 5 2.24 5 5.01v90.98c0 2.768-2.233 5.01-5 5.01h-71V0z"
         id="path385"
         fill="#E2EECA" />
      <rect
         width="320"
         height="101"
         rx="5"
         id="rect387"
         stroke-width="2"
         stroke="#E0E0E0" />
      <path
         d="M292.596 42.348h-5.365c0-2.41-1.92-4.348-4.29-4.348h-11.79c-1.19 0-2.14.972-2.14 2.17V54.3c0 2.055 1.41 3.756 3.29 4.215-.04.222-.07.45-.07.683 0 2.1 1.68 3.804 3.76 3.804s3.76-1.703 3.76-3.804c0-.186-.03-.364-.05-.544h5.47c-.02.18-.05.358-.05.544 0 2.1 1.68 3.804 3.76 3.804s3.76-1.703 3.76-3.804c0-.186-.03-.364-.05-.544h.61c.88 0 1.6-.722 1.6-1.623V44.52c0-1.196-.95-2.165-2.14-2.165zM275.97 61.913c-1.477 0-2.68-1.22-2.68-2.717 0-1.5 1.203-2.718 2.68-2.718 1.48 0 2.682 1.22 2.682 2.718 0 1.497-1.202 2.717-2.68 2.717zm3.38-4.348c-.605-1.28-1.884-2.174-3.38-2.174-1.465 0-2.72.86-3.34 2.11-1.458-.31-2.558-1.62-2.558-3.19V40.17c0-.597.482-1.083 1.073-1.083h11.79c1.778 0 3.224 1.466 3.224 3.267V56.54c-.29.296-.52.645-.7 1.025h-6.12zm9.49 4.348c-1.477 0-2.68-1.22-2.68-2.717 0-1.5 1.203-2.718 2.68-2.718 1.48 0 2.682 1.22 2.682 2.718 0 1.497-1.202 2.717-2.68 2.717zm4.827-13.046l-3.218-.007v-2.164h3.21v2.17zm0-3.258h-3.218c-.6 0-1.08.49-1.08 1.09v2.15c0 .61.48 1.09 1.07 1.09h3.21v7.07c0 .3-.23.53-.52.53h-.93c-.61-1.28-1.89-2.18-3.38-2.18-.58 0-1.12.14-1.61.38V43.43h5.36c.6 0 1.07.474 1.07 1.078v1.098z"
         id="path389"
         stroke-width=".5"
         stroke="#7DB00E"
         fill="#7DB00E"
         opacity=".7" />
    </g>
    <g
       transform="translate(28 388)"
       id="g391">
      <rect
         width="320"
         height="101"
         rx="5"
         id="rect393"
         fill="#FFF" />
      <rect
         x="28"
         y="24"
         width="171"
         height="6.333"
         rx="3.167"
         id="rect395"
         fill="#9EAAB3" />
      <rect
         x="28"
         y="44"
         width="119"
         height="6.333"
         rx="3.167"
         id="rect397"
         fill="#9EAAB3" />
      <path
         d="M244 0h71c2.76 0 5 2.24 5 5.01v90.98c0 2.768-2.233 5.01-5 5.01h-71V0z"
         id="path399"
         fill="#E2EECA" />
      <rect
         width="320"
         height="101"
         rx="5"
         id="rect401"
         stroke-width="2"
         stroke="#E0E0E0" />
      <path
         d="M292.596 42.348h-5.365c0-2.41-1.92-4.348-4.29-4.348h-11.79c-1.19 0-2.14.972-2.14 2.17V54.3c0 2.055 1.41 3.756 3.29 4.215-.04.222-.07.45-.07.683 0 2.1 1.68 3.804 3.76 3.804s3.76-1.703 3.76-3.804c0-.186-.03-.364-.05-.544h5.47c-.02.18-.05.358-.05.544 0 2.1 1.68 3.804 3.76 3.804s3.76-1.703 3.76-3.804c0-.186-.03-.364-.05-.544h.61c.88 0 1.6-.722 1.6-1.623V44.52c0-1.196-.95-2.165-2.14-2.165zM275.97 61.913c-1.477 0-2.68-1.22-2.68-2.717 0-1.5 1.203-2.718 2.68-2.718 1.48 0 2.682 1.22 2.682 2.718 0 1.497-1.202 2.717-2.68 2.717zm3.38-4.348c-.605-1.28-1.884-2.174-3.38-2.174-1.465 0-2.72.86-3.34 2.11-1.458-.31-2.558-1.62-2.558-3.19V40.17c0-.597.482-1.083 1.073-1.083h11.79c1.778 0 3.224 1.466 3.224 3.267V56.54c-.29.296-.52.645-.7 1.025h-6.12zm9.49 4.348c-1.477 0-2.68-1.22-2.68-2.717 0-1.5 1.203-2.718 2.68-2.718 1.48 0 2.682 1.22 2.682 2.718 0 1.497-1.202 2.717-2.68 2.717zm4.827-13.046l-3.218-.007v-2.164h3.21v2.17zm0-3.258h-3.218c-.6 0-1.08.49-1.08 1.09v2.15c0 .61.48 1.09 1.07 1.09h3.21v7.07c0 .3-.23.53-.52.53h-.93c-.61-1.28-1.89-2.18-3.38-2.18-.58 0-1.12.14-1.61.38V43.43h5.36c.6 0 1.07.474 1.07 1.078v1.098z"
         id="path403"
         stroke-width=".5"
         stroke="#7DB00E"
         fill="#7DB00E"
         opacity=".7" />
    </g>
    <g
       transform="translate(28 509)"
       id="g405">
      <rect
         width="320"
         height="101"
         rx="5"
         id="rect407"
         fill="#FFF" />
      <rect
         x="28"
         y="24"
         width="171"
         height="6.333"
         rx="3.167"
         id="rect409"
         fill="#9EAAB3" />
      <rect
         x="28"
         y="44"
         width="119"
         height="6.333"
         rx="3.167"
         id="rect411"
         fill="#9EAAB3" />
      <path
         d="M244 0h71c2.76 0 5 2.24 5 5.01v90.98c0 2.768-2.233 5.01-5 5.01h-71V0z"
         id="path413"
         fill="#E2EECA" />
      <rect
         width="320"
         height="101"
         rx="5"
         id="rect415"
         stroke-width="2"
         stroke="#E0E0E0" />
      <path
         d="M292.596 42.348h-5.365c0-2.41-1.92-4.348-4.29-4.348h-11.79c-1.19 0-2.14.972-2.14 2.17V54.3c0 2.055 1.41 3.756 3.29 4.215-.04.222-.07.45-.07.683 0 2.1 1.68 3.804 3.76 3.804s3.76-1.703 3.76-3.804c0-.186-.03-.364-.05-.544h5.47c-.02.18-.05.358-.05.544 0 2.1 1.68 3.804 3.76 3.804s3.76-1.703 3.76-3.804c0-.186-.03-.364-.05-.544h.61c.88 0 1.6-.722 1.6-1.623V44.52c0-1.196-.95-2.165-2.14-2.165zM275.97 61.913c-1.477 0-2.68-1.22-2.68-2.717 0-1.5 1.203-2.718 2.68-2.718 1.48 0 2.682 1.22 2.682 2.718 0 1.497-1.202 2.717-2.68 2.717zm3.38-4.348c-.605-1.28-1.884-2.174-3.38-2.174-1.465 0-2.72.86-3.34 2.11-1.458-.31-2.558-1.62-2.558-3.19V40.17c0-.597.482-1.083 1.073-1.083h11.79c1.778 0 3.224 1.466 3.224 3.267V56.54c-.29.296-.52.645-.7 1.025h-6.12zm9.49 4.348c-1.477 0-2.68-1.22-2.68-2.717 0-1.5 1.203-2.718 2.68-2.718 1.48 0 2.682 1.22 2.682 2.718 0 1.497-1.202 2.717-2.68 2.717zm4.827-13.046l-3.218-.007v-2.164h3.21v2.17zm0-3.258h-3.218c-.6 0-1.08.49-1.08 1.09v2.15c0 .61.48 1.09 1.07 1.09h3.21v7.07c0 .3-.23.53-.52.53h-.93c-.61-1.28-1.89-2.18-3.38-2.18-.58 0-1.12.14-1.61.38V43.43h5.36c.6 0 1.07.474 1.07 1.078v1.098z"
         id="path417"
         stroke-width=".5"
         stroke="#7DB00E"
         fill="#7DB00E"
         opacity=".7" />
    </g>
    <path
       d="M44 96.765c8.266 0 14.998-6.68 14.998-14.882 0-8.203-6.732-14.883-15-14.883C35.733 67 29 73.68 29 81.883c0 3.91 1.535 7.476 4.03 10.132.05.086.12.147.19.208 2.73 2.794 6.55 4.542 10.78 4.542z"
       id="path419"
       fill="#657884" />
    <g
       id="g421"
       fill="#FFF">
      <path
         d="M37.262 79.766c.287-6.086 4.89-6.565 6.303-6.565h.383c1.402 0 6.015.48 6.303 6.57v.07c.02.06.6 5.69-2.09 8.65-1.06 1.17-2.49 1.76-4.35 1.77h-.07c-1.87-.02-3.28-.59-4.35-1.76-2.71-2.93-2.13-8.58-2.12-8.64v-.07z"
         id="path423" />
      <path
         d="M32.75 92.955c5.28-1.708 7.232-3.785 7.954-5.17 1.006.428 2.13.658 3.373.67h.272c1.35-.023 2.56-.29 3.62-.785.67 1.385 2.59 3.53 8.02 5.285-3.13 2.596-7.2 5.133-11.63 5.133s-8.49-2.537-11.63-5.133z"
         id="path425" />
    </g>
    <g
       transform="translate(29 15.188)"
       id="g429">
      <mask
         id="d"
         fill="#fff">
        <use
           xlink:href="#c"
           id="use432" />
      </mask>
      <path
         d="M18.42 12.296c0 3.144-2.626 5.693-5.865 5.693H4.242c-.106 0-.19-.09-.19-.19V7.15c0-1.722 1.437-3.12 3.21-3.12h5.578c.133 0 .226.13.18.252l-.325.84c-.027.073-.1.12-.18.12h-4.98c-1.23 0-2.23.97-2.23 2.166v9.167c0 .1.086.185.19.185h7.06c2.548 0 4.61-2.007 4.61-4.48V2.87c0-.164.208-.247.328-.13l.872.846c.035.035.056.082.056.13v8.58zm-11.717.358V7.42c0-.445.372-.807.83-.807h5.39c.107 0 .192.083.192.186v5.23c0 .44-.372.8-.83.8h-5.39c-.107 0-.192-.09-.192-.19zm-4.05-5.497v9.425c0 .165-.207.248-.327.13l-.87-.845c-.037-.035-.057-.082-.057-.13v-8.58c0-3.144 2.62-5.694 5.86-5.694h8.31c.1 0 .19.083.19.186v10.64c0 1.72-1.44 3.12-3.21 3.12H6.97c-.134 0-.226-.13-.18-.26l.325-.85c.03-.07.1-.12.18-.12h4.982c1.23 0 2.23-.97 2.23-2.17V2.86c0-.102-.088-.186-.193-.186H7.26c-2.545 0-4.61 2.006-4.61 4.48zm14.27-6.89c-.106-.103-.252-.162-.404-.162H7.26C3.252.105 0 3.262 0 7.157v8.987c0 .148.06.29.168.394l2.726 2.647c.108.104.253.163.405.163h9.25c4.01 0 7.26-3.158 7.26-7.052V3.31c0-.15-.06-.29-.17-.395L16.92.268z"
         mask="url(#d)"
         id="path434"
         fill="#FFF" />
    </g>
  </g>
  <text
     xml:space="preserve"
     style="font-style:normal;font-weight:bold;font-size:40px;line-height:125%;font-family:sans-serif;letter-spacing:0px;word-spacing:0px;fill:#000000;fill-opacity:1;stroke:none;stroke-width:1px;stroke-linecap:butt;stroke-linejoin:miter;stroke-opacity:1;-inkscape-font-specification:'sans-serif Bold';font-stretch:normal;font-variant:normal;"
     x="113.05085"
     y="24.729872"
     id="text3941"
     sodipodi:linespacing="125%"><tspan
       sodipodi:role="line"
       id="tspan3943"
       x="113.05085"
       y="24.729872"
       style="font-style:normal;font-variant:normal;font-weight:bold;font-stretch:normal;font-family:sans-serif;-inkscape-font-specification:'sans-serif Bold';" /></text>
  <text
     xml:space="preserve"
     style="font-style:normal;font-weight:normal;font-size:29.8548584px;line-height:125%;font-family:sans-serif;letter-spacing:0px;word-spacing:0px;fill:#000000;fill-opacity:1;stroke:none;stroke-width:1px;stroke-linecap:butt;stroke-linejoin:miter;stroke-opacity:1"
     x="67.589348"
     y="35.349209"
     id="text3945"
     sodipodi:linespacing="125%"
     transform="scale(0.99657786,1.0034339)"><tspan
       sodipodi:role="line"
       id="tspan3947"
       x="67.589348"
       y="35.349209"
       style="font-style:normal;font-variant:normal;font-weight:bold;font-stretch:normal;font-family:sans-serif;-inkscape-font-specification:'sans-serif Bold';fill:#ffffff">HouseClean</tspan></text>
</svg>
