<?xml version="1.0" encoding="UTF-8" standalone="no"?>
<!-- Generator: Adobe Illustrator 19.0.0, SVG Export Plug-In . SVG Version: 6.00 Build 0)  -->

<svg
   xmlns:dc="http://purl.org/dc/elements/1.1/"
   xmlns:cc="http://creativecommons.org/ns#"
   xmlns:rdf="http://www.w3.org/1999/02/22-rdf-syntax-ns#"
   xmlns:svg="http://www.w3.org/2000/svg"
   xmlns="http://www.w3.org/2000/svg"
   xmlns:sodipodi="http://sodipodi.sourceforge.net/DTD/sodipodi-0.dtd"
   xmlns:inkscape="http://www.inkscape.org/namespaces/inkscape"
   version="1.1"
   id="Capa_1"
   x="0px"
   y="0px"
   viewBox="0 0 56.798 56.798"
   style="enable-background:new 0 0 56.798 56.798;"
   xml:space="preserve"
   inkscape:version="0.91 r13725"
   sodipodi:docname="houseclean.svg"><metadata
     id="metadata49"><rdf:RDF><cc:Work
         rdf:about=""><dc:format>image/svg+xml</dc:format><dc:type
           rdf:resource="http://purl.org/dc/dcmitype/StillImage" /></cc:Work></rdf:RDF></metadata><defs
     id="defs47" /><sodipodi:namedview
     pagecolor="#ffffff"
     bordercolor="#666666"
     borderopacity="1"
     objecttolerance="10"
     gridtolerance="10"
     guidetolerance="10"
     inkscape:pageopacity="0"
     inkscape:pageshadow="2"
     inkscape:window-width="1327"
     inkscape:window-height="735"
     id="namedview45"
     showgrid="false"
     inkscape:zoom="3.5525045"
     inkscape:cx="-1.5327785"
     inkscape:cy="67.896424"
     inkscape:window-x="72"
     inkscape:window-y="39"
     inkscape:window-maximized="0"
     inkscape:current-layer="Capa_1" /><path
     style="fill:#ffffff;fill-opacity:0.26903555"
     d="m 10.673911,23.302147 4.082806,29.603855 c 0.186686,1.354116 1.343886,2.362989 2.712067,2.362989 l 22.213121,0 c 1.366902,0 2.52538,-1.008873 2.712067,-2.362989 l 4.082805,-29.603855 -35.802866,0 z"
     id="path3"
     inkscape:connector-curvature="0" /><path
     style="fill:#f4e6d8;fill-opacity:0.34010153"
     d="m 44.482413,10.397374 c -1.045955,0 -1.944863,0.471831 -2.339973,2.446103 -0.04859,-1.256936 -0.499961,-2.446103 -2.774723,-2.446103 -0.998644,0 -1.901387,0.68537 -2.584199,1.490934 -0.139376,-4.3807365 -2.925606,-7.8843023 -6.366517,-7.8843023 -2.935835,0 -5.383217,2.558626 -6.133798,6.0251113 -0.808122,-0.687926 -1.774799,-1.093266 -2.816919,-1.093266 -2.01519,0 -3.741399,1.511392 -4.575094,3.688973 -0.696878,-1.23392 -1.820832,-2.044599 -3.096948,-2.044599 -2.118763,0 -3.8360215,2.20827 -3.8360215,4.931844 l 31.9668455,0 0.333733,0 4.780961,0 c 0,-1.815716 -0.212259,-5.114695 -2.557347,-5.114695 z"
     id="path5"
     inkscape:connector-curvature="0" /><path
     style="fill:#f2f2f2;fill-opacity:0.17766498"
     d="m 6.8107536,23.842846 c 1.8737085,-2.563182 1.8618915,-1.030808 2.4150298,-6.0849 0.1322253,-1.208159 0.9443876,-2.203155 2.1104766,-2.203155 l 34.975361,0 c 1.164866,0 2.110477,0.985858 2.110477,2.203155 l 0,3.267012 c 0,1.216018 -0.944386,2.203155 -2.110477,2.203155 l -34.976586,0 c -2.2592673,1.894119 -2.3067619,1.912079 -2.7971933,2.427893 -5.2033105,5.407511 -3.6538321,12.107762 -0.01347,16.04352 3.6746553,3.969003 10.0869263,5.839703 15.4911183,0.554944 2.395874,-2.343809 4.191555,-4.908828 5.200861,-6.500777 -1.855701,-0.776155 -3.172453,-2.663478 -3.172453,-4.874305 0,-2.898754 2.258689,-5.256628 5.034277,-5.256628 2.775589,0 5.035502,2.359153 5.035502,5.256628 0,2.589314 -1.806705,4.734929 -4.170732,5.165842 -0.8023,1.384804 -2.981371,4.876862 -6.251814,8.076104 -2.817233,2.756821 -5.966413,3.919136 -9.002902,3.919136 -3.770196,0 -7.3640073,-1.793981 -9.9264661,-4.562309 C 2.3154311,38.66779 0.43278178,30.474048 6.8107545,23.842846 Z m 26.8543734,7.035263 c 0,-1.488376 -1.159965,-2.69928 -2.585731,-2.69928 -1.425766,0 -2.584507,1.210904 -2.584507,2.69928 0,1.488376 1.158741,2.69928 2.584507,2.69928 1.425766,0 2.585731,-1.210904 2.585731,-2.69928 z"
     id="path7"
     inkscape:connector-curvature="0"
     sodipodi:nodetypes="ccssssscccccsssccsccsssss" /><g
     id="g11" /><g
     id="g15" /><g
     id="g17" /><g
     id="g19" /><g
     id="g21" /><g
     id="g23" /><g
     id="g25" /><g
     id="g27" /><g
     id="g29" /><g
     id="g31" /><g
     id="g33" /><g
     id="g35" /><g
     id="g37" /><g
     id="g39" /><g
     id="g41" /><g
     id="g43" /></svg>